<svg xmlns="http://www.w3.org/2000/svg" viewBox="0 0 1400 900" font-family="'Google Sans', Roboto, system-ui, -apple-system, sans-serif">
  <defs>
    <marker id="arrow" viewBox="0 0 10 10" refX="9" refY="5" markerWidth="7" markerHeight="7" orient="auto">
      <path d="M 0 0 L 10 5 L 0 10 z" fill="#5f6368"/>
    </marker>
    <marker id="arrow-green" viewBox="0 0 10 10" refX="9" refY="5" markerWidth="7" markerHeight="7" orient="auto">
      <path d="M 0 0 L 10 5 L 0 10 z" fill="#137333"/>
    </marker>
    <marker id="arrow-blue" viewBox="0 0 10 10" refX="9" refY="5" markerWidth="7" markerHeight="7" orient="auto">
      <path d="M 0 0 L 10 5 L 0 10 z" fill="#1a73e8"/>
    </marker>
  </defs>

  <rect width="1400" height="900" fill="#ffffff"/>

  <text x="60" y="50" font-size="28" font-weight="600" fill="#202124">SIFTGuard — Autonomous DFIR Agent</text>
  <text x="60" y="78" font-size="15" fill="#5f6368">Architecture v3 · Single typed MCP server · 5 orchestrators · application-layer append-only audit</text>
  <text x="1340" y="50" font-size="13" fill="#5f6368" text-anchor="end">SANS FIND EVIL! 2026</text>
  <text x="1340" y="68" font-size="12" fill="#5f6368" text-anchor="end">github.com/Nafsgerman/siftguard</text>

  <text x="60" y="125" font-size="13" font-weight="600" fill="#1a73e8" letter-spacing="1.2">ORCHESTRATION LAYER · variable under test</text>
  <text x="540" y="125" font-size="13" font-weight="600" fill="#1a73e8" letter-spacing="1.2">TYPED TOOL CONTRACT</text>
  <text x="970" y="125" font-size="13" font-weight="600" fill="#1a73e8" letter-spacing="1.2">EVIDENCE + AUDIT · architectural guardrails</text>

  <g>
    <rect x="60" y="155" width="420" height="80" rx="8" fill="#ffffff" stroke="#dadce0"/>
    <text x="80" y="184" font-size="16" font-weight="600" fill="#202124">Native Anthropic Loop</text>
    <text x="80" y="206" font-size="13" fill="#5f6368">Hand-written tool-use loop · self-correction</text>
    <text x="80" y="225" font-size="12" font-weight="600" fill="#1a73e8">Claude Sonnet 4.5</text>
  </g>
  <g>
    <rect x="60" y="245" width="420" height="80" rx="8" fill="#ffffff" stroke="#dadce0"/>
    <text x="80" y="274" font-size="16" font-weight="600" fill="#202124">LangGraph</text>
    <text x="80" y="296" font-size="13" fill="#5f6368">Graph state machine · checkpointed nodes</text>
    <text x="80" y="315" font-size="12" font-weight="600" fill="#1a73e8">Claude Sonnet 4.5</text>
  </g>
  <g>
    <rect x="60" y="335" width="420" height="80" rx="8" fill="#ffffff" stroke="#dadce0"/>
    <text x="80" y="364" font-size="16" font-weight="600" fill="#202124">OpenAI Function Calling</text>
    <text x="80" y="386" font-size="13" fill="#5f6368">JSON-schema tool-call protocol</text>
    <text x="80" y="405" font-size="12" font-weight="600" fill="#1a73e8">gpt-5.5</text>
  </g>
  <g>
    <rect x="60" y="425" width="420" height="80" rx="8" fill="#ffffff" stroke="#dadce0"/>
    <text x="80" y="454" font-size="16" font-weight="600" fill="#202124">Gemini Function Calling</text>
    <text x="80" y="476" font-size="13" fill="#5f6368">Google function declarations</text>
    <text x="80" y="495" font-size="12" font-weight="600" fill="#1a73e8">Gemini 3 Pro</text>
  </g>
  <g>
    <rect x="60" y="515" width="420" height="80" rx="8" fill="#ffffff" stroke="#dadce0"/>
    <text x="80" y="544" font-size="16" font-weight="600" fill="#202124">Claude Code (headless CLI)</text>
    <text x="80" y="566" font-size="13" fill="#5f6368">Subprocess · stdin DEVNULL · bypassPermissions</text>
    <text x="80" y="585" font-size="12" font-weight="600" fill="#1a73e8">Anthropic CLI</text>
  </g>
  <text x="60" y="625" font-size="12" fill="#5f6368" font-style="italic">Comparable model classes — orchestration is the variable under test (ADR-006)</text>

  <line x1="510" y1="155" x2="510" y2="595" stroke="#1a73e8" stroke-width="2" stroke-dasharray="6,4"/>
  <text x="510" y="675" font-size="11" fill="#5f6368" text-anchor="middle">prompt →</text>
  <text x="510" y="690" font-size="11" fill="#5f6368" text-anchor="middle">typed contract</text>

  <g>
    <rect x="540" y="155" width="380" height="440" rx="10" fill="#f8f9fa" stroke="#1a73e8" stroke-width="2"/>
    <text x="730" y="193" font-size="18" font-weight="600" fill="#1a73e8" text-anchor="middle">Typed MCP Server</text>
    <text x="730" y="215" font-size="13" fill="#5f6368" text-anchor="middle">Pydantic tool surface · single contract</text>
    <line x1="560" y1="232" x2="900" y2="232" stroke="#dadce0"/>

    <text x="560" y="262" font-size="12" font-weight="600" fill="#202124">Memory forensics</text>
    <text x="580" y="282" font-size="12" fill="#5f6368">• windows.psscan</text>
    <text x="580" y="300" font-size="12" fill="#5f6368">• windows.netscan</text>
    <text x="580" y="318" font-size="12" fill="#5f6368">• windows.malfind</text>
    <text x="580" y="336" font-size="12" fill="#5f6368">• windows.cmdline</text>

    <text x="560" y="366" font-size="12" font-weight="600" fill="#202124">Disk forensics</text>
    <text x="580" y="386" font-size="12" fill="#5f6368">• mftscan / ADS</text>
    <text x="580" y="404" font-size="12" fill="#5f6368">• registry.printkey · regripper (allowlisted)</text>
    <text x="580" y="422" font-size="12" fill="#5f6368">• filesystem / timeline</text>

    <text x="560" y="452" font-size="12" font-weight="600" fill="#202124">Run-control</text>
    <text x="580" y="472" font-size="12" fill="#5f6368">• file-based cache (5 GB image safe)</text>
    <text x="580" y="490" font-size="12" fill="#5f6368">• JSONL output parser · Pydantic-validated</text>

    <text x="560" y="540" font-size="11" fill="#5f6368" font-style="italic">All 5 orchestrators consume the</text>
    <text x="560" y="557" font-size="11" fill="#5f6368" font-style="italic">identical typed contract.</text>
  </g>

  <line x1="950" y1="155" x2="950" y2="595" stroke="#1a73e8" stroke-width="3"/>
  <text x="950" y="675" font-size="11" font-weight="600" fill="#1a73e8" text-anchor="middle">function boundary</text>
  <text x="950" y="690" font-size="11" fill="#5f6368" text-anchor="middle">15 mutation paths blocked</text>

  <g>
    <rect x="970" y="155" width="370" height="190" rx="8" fill="#ffffff" stroke="#dadce0"/>
    <text x="990" y="183" font-size="16" font-weight="600" fill="#202124">Evidence Volume</text>
    <rect x="990" y="193" width="100" height="22" rx="11" fill="#e6f4ea"/>
    <text x="1040" y="209" font-size="11" font-weight="700" fill="#137333" text-anchor="middle" letter-spacing="0.5">READ-ONLY</text>
    <text x="990" y="245" font-size="13" fill="#5f6368">TEST-001 · base-hunt-memory.img (5 GB)</text>
    <text x="990" y="265" font-size="13" fill="#5f6368">TEST-002 · NIST CFReDS SCHARDT.img</text>
    <text x="990" y="285" font-size="13" fill="#5f6368">TEST-ROCBA · forensic disk image</text>
    <text x="990" y="320" font-size="11" fill="#5f6368" font-style="italic">Mount enforced read-only at OS layer.</text>
  </g>

  <g>
    <rect x="970" y="365" width="370" height="120" rx="8" fill="#ffffff" stroke="#dadce0"/>
    <text x="990" y="393" font-size="16" font-weight="600" fill="#202124">Audit Database</text>
    <rect x="990" y="403" width="240" height="22" rx="11" fill="#e8f0fe"/>
    <text x="1110" y="419" font-size="11" font-weight="700" fill="#1a73e8" text-anchor="middle" letter-spacing="0.5">APPLICATION-LAYER APPEND-ONLY</text>
    <text x="990" y="451" font-size="12" fill="#5f6368">SQLite · auditentry · 19 columns</text>
    <text x="990" y="469" font-size="12" fill="#5f6368">SHA256 args/output · tokens · cost · ts</text>
  </g>

  <g>
    <rect x="970" y="505" width="370" height="90" rx="8" fill="#ffffff" stroke="#dadce0"/>
    <text x="990" y="533" font-size="16" font-weight="600" fill="#202124">Spoliation Suite — 15/15 ✓</text>
    <text x="990" y="555" font-size="12" fill="#5f6368">Architectural blocks at function boundary.</text>
    <text x="990" y="573" font-size="12" fill="#5f6368">Verified non-bypassable by prompt.</text>
  </g>

  <g stroke="#5f6368" stroke-width="1.5" fill="none">
    <line x1="480" y1="195" x2="538" y2="195" marker-end="url(#arrow)"/>
    <line x1="480" y1="285" x2="538" y2="285" marker-end="url(#arrow)"/>
    <line x1="480" y1="375" x2="538" y2="375" marker-end="url(#arrow)"/>
    <line x1="480" y1="465" x2="538" y2="465" marker-end="url(#arrow)"/>
    <line x1="480" y1="555" x2="538" y2="555" marker-end="url(#arrow)"/>
  </g>

  <line x1="922" y1="250" x2="968" y2="250" stroke="#137333" stroke-width="2" marker-end="url(#arrow-green)"/>
  <text x="945" y="242" font-size="11" font-weight="600" fill="#137333" text-anchor="middle">read</text>

  <line x1="922" y1="425" x2="968" y2="425" stroke="#1a73e8" stroke-width="2" marker-end="url(#arrow-blue)"/>
  <text x="945" y="417" font-size="11" font-weight="600" fill="#1a73e8" text-anchor="middle">append</text>

  <line x1="60" y1="745" x2="1340" y2="745" stroke="#dadce0"/>
  <text x="60" y="775" font-size="13" font-weight="600" fill="#202124">Boundaries &amp; guarantees</text>

  <g transform="translate(60, 790)">
    <line x1="0" y1="20" x2="40" y2="20" stroke="#1a73e8" stroke-width="3"/>
    <text x="50" y="24" font-size="12" fill="#5f6368">Architectural boundary — enforced at function entry (not prompt)</text>
  </g>
  <g transform="translate(500, 790)">
    <line x1="0" y1="20" x2="40" y2="20" stroke="#1a73e8" stroke-width="2" stroke-dasharray="6,4"/>
    <text x="50" y="24" font-size="12" fill="#5f6368">Prompt → typed-contract serialization point</text>
  </g>
  <g transform="translate(880, 790)">
    <rect x="0" y="10" width="20" height="20" rx="10" fill="#e6f4ea"/>
    <text x="30" y="24" font-size="12" fill="#5f6368">Read-only volume</text>
  </g>
  <g transform="translate(1100, 790)">
    <rect x="0" y="10" width="20" height="20" rx="10" fill="#e8f0fe"/>
    <text x="30" y="24" font-size="12" fill="#5f6368">App-layer append-only</text>
  </g>

  <text x="60" y="868" font-size="11" fill="#5f6368" font-style="italic">Threat model: docs/THREAT_MODEL.md · Limitations: docs/LIMITATIONS.md · ADR-006 (multi-orchestrator) · ADR-007 (spoliation moat)</text>
</svg>
